<svg fill="#e3397d" height="200px" width="200px" version="1.1" id="Layer_1" xmlns="http://www.w3.org/2000/svg" xmlns:xlink="http://www.w3.org/1999/xlink" viewBox="0 0 512 512" xml:space="preserve"><g id="SVGRepo_bgCarrier" stroke-width="0"></g><g id="SVGRepo_tracerCarrier" stroke-linecap="round" stroke-linejoin="round"></g><g id="SVGRepo_iconCarrier"> <g> <g> <path d="M452.885,0H165.781c-32.597,0-59.115,26.539-59.115,59.136v47.531H59.115C26.517,106.667,0,133.205,0,165.803v324.864 c0,8.64,5.184,16.405,13.163,19.712c2.645,1.088,5.419,1.621,8.171,1.621c5.547,0,11.008-2.155,15.083-6.251l100.416-100.416 h145.387c32.597,0,59.115-26.517,59.115-59.115v-47.552h73.259l57.792,96.32c3.904,6.549,10.923,10.347,18.283,10.347 c1.899,0,3.819-0.235,5.696-0.768C505.6,402.005,512,393.6,512,384V59.136C512,26.539,485.483,0,452.885,0z M106.667,192H192 c11.797,0,21.333,9.557,21.333,21.333c0,11.797-9.536,21.333-21.333,21.333h-85.333c-11.797,0-21.333-9.536-21.333-21.333 C85.333,201.557,94.869,192,106.667,192z M234.667,320h-128c-11.797,0-21.333-9.536-21.333-21.333 c0-11.776,9.536-21.333,21.333-21.333h128c11.797,0,21.333,9.557,21.333,21.333C256,310.464,246.464,320,234.667,320z M469.333,306.987l-24.384-40.619c-3.84-6.443-10.773-10.368-18.283-10.368h-85.333v-90.197c0-32.597-26.517-59.136-59.115-59.136 H149.333V59.136c0-9.067,7.381-16.469,16.448-16.469h287.104c9.067,0,16.448,7.403,16.448,16.469V306.987z"></path> </g> </g> </g></svg>