<?xml version="1.0" encoding="iso-8859-1"?>
<!-- Uploaded to: SVG Repo, www.svgrepo.com, Generator: SVG Repo Mixer Tools -->
<svg height="800px" width="800px" version="1.1" id="Layer_1" xmlns="http://www.w3.org/2000/svg" xmlns:xlink="http://www.w3.org/1999/xlink" 
	 viewBox="0 0 511.996 511.996" xml:space="preserve">
<circle style="fill:#F2CA7F;" cx="255.998" cy="255.998" r="255.998"/>
<circle style="fill:#FFFFFF;" cx="255.998" cy="255.998" r="197.977"/>
<path style="fill:#E0B76E;" d="M256.001,464.134c-114.766,0-208.134-93.368-208.134-208.134S141.235,47.866,256.001,47.866
	c114.765,0,208.133,93.368,208.133,208.134S370.766,464.134,256.001,464.134z M256.001,68.191
	c-103.559,0-187.81,84.25-187.81,187.81s84.25,187.81,187.81,187.81s187.808-84.25,187.808-187.81S359.558,68.191,256.001,68.191z"
	/>
<polygon style="fill:#898686;" points="303.55,266.163 245.838,266.163 245.838,147.614 266.163,147.614 266.163,245.838 
	303.55,245.838 "/>
<g>
	<path style="fill:#79B1D6;" d="M256.001,111.728c-5.612,0-10.162-4.55-10.162-10.162V91.322c0-5.612,4.55-10.162,10.162-10.162
		c5.614,0,10.162,4.55,10.162,10.162v10.244C266.163,107.178,261.613,111.728,256.001,111.728z"/>
	<path style="fill:#79B1D6;" d="M256.001,430.84c-5.612,0-10.162-4.55-10.162-10.162v-10.244c0-5.612,4.55-10.162,10.162-10.162
		c5.614,0,10.162,4.55,10.162,10.162v10.244C266.163,426.29,261.613,430.84,256.001,430.84z"/>
	<path style="fill:#79B1D6;" d="M422.313,266.163h-11.879c-5.614,0-10.162-4.55-10.162-10.162c0-5.612,4.549-10.162,10.162-10.162
		h11.879c5.614,0,10.162,4.55,10.162,10.162C432.476,261.613,427.927,266.163,422.313,266.163z"/>
	<path style="fill:#79B1D6;" d="M101.566,266.163H89.687c-5.612,0-10.162-4.55-10.162-10.162c0-5.612,4.55-10.162,10.162-10.162
		h11.879c5.612,0,10.162,4.55,10.162,10.162C111.728,261.613,107.178,266.163,101.566,266.163z"/>
	<circle style="fill:#79B1D6;" cx="339.262" cy="111.773" r="10.162"/>
	<circle style="fill:#79B1D6;" cx="400.209" cy="172.734" r="10.162"/>
	<circle style="fill:#79B1D6;" cx="400.209" cy="339.262" r="10.162"/>
	<circle style="fill:#79B1D6;" cx="339.262" cy="400.223" r="10.162"/>
	<circle style="fill:#79B1D6;" cx="172.734" cy="400.223" r="10.162"/>
	<circle style="fill:#79B1D6;" cx="111.787" cy="339.262" r="10.162"/>
	<circle style="fill:#79B1D6;" cx="111.787" cy="172.734" r="10.162"/>
	<circle style="fill:#79B1D6;" cx="172.734" cy="111.773" r="10.162"/>
</g>
</svg>