<?xml version="1.0" encoding="UTF-8" standalone="no"?>
<!-- Generator: Adobe Illustrator 23.0.2, SVG Export Plug-In . SVG Version: 6.00 Build 0)  -->

<svg
   xmlns:dc="http://purl.org/dc/elements/1.1/"
   xmlns:cc="http://creativecommons.org/ns#"
   xmlns:rdf="http://www.w3.org/1999/02/22-rdf-syntax-ns#"
   xmlns:svg="http://www.w3.org/2000/svg"
   xmlns="http://www.w3.org/2000/svg"
   xmlns:sodipodi="http://sodipodi.sourceforge.net/DTD/sodipodi-0.dtd"
   xmlns:inkscape="http://www.inkscape.org/namespaces/inkscape"
   version="1.1"
   id="Layer_1"
   x="0px"
   y="0px"
   viewBox="0 0 841.89 595.276"
   style="enable-background:new 0 0 841.89 595.276;"
   xml:space="preserve"
   sodipodi:docname="logo-pure.svg"
   inkscape:version="0.92.4 (5da689c313, 2019-01-14)"><metadata
   id="metadata439"><rdf:RDF><cc:Work
       rdf:about=""><dc:format>image/svg+xml</dc:format><dc:type
         rdf:resource="http://purl.org/dc/dcmitype/StillImage" /><dc:title></dc:title></cc:Work></rdf:RDF></metadata><defs
   id="defs437" /><sodipodi:namedview
   pagecolor="#ffffff"
   bordercolor="#666666"
   borderopacity="1"
   objecttolerance="10"
   gridtolerance="10"
   guidetolerance="10"
   inkscape:pageopacity="0"
   inkscape:pageshadow="2"
   inkscape:window-width="1920"
   inkscape:window-height="1001"
   id="namedview435"
   showgrid="false"
   inkscape:zoom="0.39645475"
   inkscape:cx="420.94501"
   inkscape:cy="297.638"
   inkscape:window-x="-9"
   inkscape:window-y="-9"
   inkscape:window-maximized="1"
   inkscape:current-layer="g432" />
<g
   id="g432">
	<g
   id="g118"
   transform="matrix(1.4459598,0,0,1.4459598,-196.4402,-68.188239)"
   style="stroke-width:0.69158214">
		<g
   id="g79"
   style="stroke-width:0.69158214">
			<path
   style="fill:none;stroke-width:0.69158214"
   d="m 381.778,227.643 c 3.888,6.74 7.077,13.859 9.533,21.303 0.159,0.483 0.316,0.967 0.468,1.451 2.054,6.514 3.499,13.123 4.333,19.788 7.586,-1.604 15.316,-2.431 23.127,-2.466 7.397,-0.033 14.684,0.644 21.811,2.021 0.816,-7.736 2.42,-15.366 4.808,-22.829 2.239,-6.997 5.111,-13.676 8.59,-19.991 -7.114,-3.168 -13.883,-7.056 -20.25,-11.639 -5.98,-4.304 -11.459,-9.115 -16.401,-14.393 -5.201,5.768 -10.976,10.99 -17.285,15.617 -5.935,4.351 -12.195,8.071 -18.734,11.138 z"
   id="path2"
   inkscape:connector-curvature="0" />
			<path
   style="fill:#be1e2d;stroke-width:0.69158214"
   d="m 294.023,200.45 c 0.058,-0.209 0.119,-0.417 0.182,-0.624 -0.063,0.207 -0.123,0.416 -0.182,0.624 z"
   id="path4"
   inkscape:connector-curvature="0" />
			<path
   style="fill:#be1e2d;stroke-width:0.69158214"
   d="m 294.507,198.892 c 0.037,-0.109 0.074,-0.217 0.112,-0.325 -0.038,0.108 -0.075,0.216 -0.112,0.325 z"
   id="path6"
   inkscape:connector-curvature="0" />
			<path
   style="fill:#be1e2d;stroke-width:0.69158214"
   d="m 294.781,198.125 c 0.023,-0.06 0.044,-0.12 0.067,-0.181 -0.023,0.06 -0.045,0.12 -0.067,0.181 z"
   id="path8"
   inkscape:connector-curvature="0" />
			<path
   style="fill:#be1e2d;stroke-width:0.69158214"
   d="m 294.255,199.665 c 0.049,-0.158 0.099,-0.315 0.15,-0.472 -0.052,0.157 -0.101,0.315 -0.15,0.472 z"
   id="path10"
   inkscape:connector-curvature="0" />
			<path
   style="fill:#be1e2d;stroke-width:0.69158214"
   d="m 295.077,197.362 c 0.005,-0.012 0.01,-0.024 0.014,-0.036 -0.005,0.012 -0.009,0.024 -0.014,0.036 z"
   id="path12"
   inkscape:connector-curvature="0" />
			<path
   style="fill:#2f397b;stroke-width:0.69158214"
   d="m 475.656,349.415 c -0.127,-0.011 -0.255,-0.023 -0.382,-0.036 0.127,0.012 0.255,0.025 0.382,0.036 z"
   id="path14"
   inkscape:connector-curvature="0" />
			<path
   style="fill:#ec297b;stroke-width:0.69158214"
   d="m 475.274,349.378 c -0.047,-0.005 -0.095,-0.009 -0.142,-0.015 0.048,0.006 0.095,0.01 0.142,0.015 z"
   id="path16"
   inkscape:connector-curvature="0" />
			
				<linearGradient
   id="SVGID_1_"
   gradientUnits="userSpaceOnUse"
   x1="36.7771"
   y1="254.18719"
   x2="85.741699"
   y2="188.01649"
   gradientTransform="matrix(0.5559629,0.41135307,0.41135307,-0.5559629,300.308,358.4963)">
				<stop
   offset="0"
   style="stop-color:#00A551"
   id="stop18" />
				<stop
   offset="1"
   style="stop-color:#7EC798"
   id="stop20" />
			</linearGradient>
			<path
   style="fill:url(#SVGID_1_);stroke-width:0.69158214"
   d="m 506.799,321.258 c 0.046,-3.099 -0.41,-6.152 -1.325,-9.053 -1.331,-4.222 -3.634,-8.12 -6.775,-11.356 -10.56,-10.879 -23.018,-19.285 -37.027,-24.985 -6.685,-2.72 -13.575,-4.764 -20.621,-6.125 -7.127,-1.376 -14.415,-2.054 -21.811,-2.021 -7.812,0.035 -15.541,0.862 -23.127,2.466 -6.594,1.395 -13.081,3.377 -19.419,5.941 -14.047,5.682 -26.747,13.976 -37.745,24.651 -1.862,1.807 -3.452,3.842 -4.745,6.039 -0.188,0.378 -0.381,0.755 -0.579,1.13 -3.555,6.728 -4.292,14.592 -2.049,21.862 2.243,7.27 7.283,13.353 14.011,16.908 5.878,3.106 12.625,4.061 19.085,2.756 0.012,-0.003 0.024,-0.005 0.036,-0.007 0.147,-0.03 0.293,-0.063 0.439,-0.095 0.11,-0.024 0.22,-0.048 0.33,-0.073 0.043,-0.01 0.087,-0.021 0.13,-0.032 4.971,-1.189 9.579,-3.695 13.308,-7.315 0.265,-0.257 0.533,-0.511 0.802,-0.763 11.013,-10.318 25.095,-16.023 39.78,-16.089 14.624,-0.065 28.13,5.516 38.03,15.716 3.924,4.042 8.925,6.784 14.341,7.993 0.083,0.019 0.166,0.041 0.249,0.06 0.995,0.213 1.998,0.391 3.017,0.497 0.047,0.005 0.094,0.01 0.142,0.015 0.127,0.013 0.255,0.025 0.382,0.036 0.673,0.058 1.349,0.093 2.028,0.103 7.608,0.113 14.95,-2.801 20.41,-8.101 5.46,-5.3 8.589,-12.55 8.703,-20.158 z"
   id="path23"
   inkscape:connector-curvature="0" />
			<path
   style="fill:#1b75bb;stroke-width:0.69158214"
   d="m 294.405,199.194 c 0.033,-0.101 0.068,-0.202 0.102,-0.302 -0.034,0.1 -0.069,0.201 -0.102,0.302 z"
   id="path25"
   inkscape:connector-curvature="0" />
			<path
   style="fill:#1b75bb;stroke-width:0.69158214"
   d="m 444.888,128.291 c 0.039,0.112 0.077,0.225 0.114,0.338 -0.038,-0.114 -0.076,-0.226 -0.114,-0.338 z"
   id="path27"
   inkscape:connector-curvature="0" />
			<path
   style="fill:#1b75bb;stroke-width:0.69158214"
   d="m 294.848,197.944 c 0.074,-0.195 0.151,-0.389 0.229,-0.582 -0.078,0.193 -0.155,0.387 -0.229,0.582 z"
   id="path29"
   inkscape:connector-curvature="0" />
			<path
   style="fill:#1b75bb;stroke-width:0.69158214"
   d="m 294.619,198.566 c 0.052,-0.148 0.107,-0.295 0.161,-0.442 -0.054,0.148 -0.108,0.294 -0.161,0.442 z"
   id="path31"
   inkscape:connector-curvature="0" />
			<path
   style="fill:#1b75bb;stroke-width:0.69158214"
   d="m 294.205,199.826 c 0.016,-0.054 0.033,-0.107 0.05,-0.161 -0.017,0.054 -0.034,0.107 -0.05,0.161 z"
   id="path33"
   inkscape:connector-curvature="0" />
			<path
   style="fill:#1b75bb;stroke-width:0.69158214"
   d="m 294.019,200.464 c 10e-4,-0.004 0.003,-0.009 0.004,-0.013 -0.001,0.004 -0.002,0.008 -0.004,0.013 z"
   id="path35"
   inkscape:connector-curvature="0" />
			<path
   style="fill:#1b75bb;stroke-width:0.69158214"
   d="m 445.132,129.027 c -0.002,-0.006 -0.004,-0.012 -0.006,-0.018 0.004,0.012 0.007,0.024 0.011,0.037 -10e-4,-0.006 -0.003,-0.012 -0.005,-0.019 z"
   id="path37"
   inkscape:connector-curvature="0" />
			
				<linearGradient
   id="SVGID_2_"
   gradientUnits="userSpaceOnUse"
   x1="26.593901"
   y1="144.2462"
   x2="-74.8619"
   y2="281.35361"
   gradientTransform="matrix(0.5559629,0.41135307,0.41135307,-0.5559629,300.308,358.4963)">
				<stop
   offset="0"
   style="stop-color:#F58D52"
   id="stop39" />
				<stop
   offset="1"
   style="stop-color:#EE4865"
   id="stop41" />
			</linearGradient>
			<path
   style="fill:url(#SVGID_2_);stroke-width:0.69158214"
   d="m 384.356,334.754 c 7.083,-13.405 11.229,-27.851 12.32,-42.935 0.524,-7.242 0.332,-14.47 -0.565,-21.635 -0.834,-6.664 -2.279,-13.274 -4.333,-19.788 -0.152,-0.484 -0.309,-0.968 -0.468,-1.451 -2.456,-7.444 -5.644,-14.563 -9.533,-21.303 -3.355,-5.815 -7.231,-11.348 -11.611,-16.563 -9.745,-11.604 -21.557,-21.119 -35.109,-28.279 -6.728,-3.555 -14.592,-4.292 -21.863,-2.048 -7.271,2.243 -13.353,7.283 -16.908,14.011 -0.443,0.838 -0.842,1.693 -1.197,2.563 -0.005,0.012 -0.009,0.024 -0.014,0.036 -0.078,0.193 -0.155,0.387 -0.229,0.582 -0.023,0.06 -0.045,0.12 -0.067,0.181 -0.055,0.147 -0.109,0.294 -0.161,0.442 -0.038,0.108 -0.075,0.217 -0.112,0.325 -0.034,0.101 -0.069,0.201 -0.102,0.302 -0.051,0.157 -0.101,0.314 -0.15,0.472 -0.017,0.054 -0.033,0.107 -0.05,0.161 -0.063,0.207 -0.124,0.415 -0.182,0.624 -10e-4,0.005 -0.003,0.009 -0.004,0.013 -0.061,0.22 -0.119,0.441 -0.175,0.661 -0.004,0.016 -0.008,0.032 -0.012,0.048 -1.269,5.05 -1.154,10.395 0.407,15.453 0.018,0.056 0.035,0.112 0.053,0.169 2.269,7.196 7.283,13.212 13.959,16.739 13.709,7.245 23.855,19.102 28.567,33.388 0.079,0.238 0.155,0.475 0.23,0.713 4.179,13.257 3.171,27.093 -2.845,39.182 -0.188,0.378 -0.381,0.755 -0.579,1.13 -3.555,6.728 -4.292,14.592 -2.049,21.862 2.243,7.27 7.283,13.353 14.011,16.908 5.878,3.106 12.625,4.061 19.085,2.756 0.012,-0.003 0.024,-0.005 0.036,-0.007 0.147,-0.03 0.293,-0.063 0.439,-0.095 0.11,-0.024 0.22,-0.048 0.33,-0.073 0.043,-0.01 0.087,-0.021 0.13,-0.032 4.971,-1.189 9.579,-3.695 13.308,-7.315 0.265,-0.257 0.533,-0.511 0.802,-0.763 1.822,-1.904 3.389,-4.064 4.641,-6.434 z"
   id="path44"
   inkscape:connector-curvature="0" />
			<path
   style="fill:#f6921e;stroke-width:0.69158214"
   d="m 444.821,128.099 c 0.022,0.064 0.044,0.128 0.067,0.191 -0.023,-0.063 -0.044,-0.127 -0.067,-0.191 z"
   id="path46"
   inkscape:connector-curvature="0" />
			<path
   style="fill:#f6921e;stroke-width:0.69158214"
   d="m 445.002,128.628 c 0.042,0.127 0.084,0.254 0.124,0.381 -0.04,-0.127 -0.082,-0.254 -0.124,-0.381 z"
   id="path48"
   inkscape:connector-curvature="0" />
			<g
   id="g57"
   style="stroke-width:0.69158214">
				
					<linearGradient
   id="SVGID_3_"
   gradientUnits="userSpaceOnUse"
   x1="144.3548"
   y1="232.01289"
   x2="42.706299"
   y2="369.3808"
   gradientTransform="matrix(0.5559629,0.41135307,0.41135307,-0.5559629,300.308,358.4963)">
					<stop
   offset="0"
   style="stop-color:#6FCBDC"
   id="stop50" />
					<stop
   offset="1"
   style="stop-color:#3CB1E5"
   id="stop52" />
				</linearGradient>
				<path
   style="fill:url(#SVGID_3_);stroke-width:0.69158214"
   d="m 505.393,330.114 c 1.989,-5.826 2.041,-12.098 0.211,-17.898 -0.432,-1.369 -0.968,-2.712 -1.608,-4.016 -6.833,-13.919 -8.072,-29.476 -3.487,-43.803 4.457,-13.928 13.938,-25.048 26.698,-31.312 6.83,-3.353 12.049,-9.282 14.508,-16.483 1.989,-5.826 2.04,-12.097 0.212,-17.898 -0.432,-1.369 -0.968,-2.712 -1.608,-4.016 -1.01,-2.056 -2.277,-3.945 -3.718,-5.677 -0.009,-0.011 -0.018,-0.021 -0.027,-0.032 -1.757,-2.107 -3.801,-3.948 -6.08,-5.472 0.417,0.279 0.831,0.562 1.234,0.865 -0.446,-0.334 -0.906,-0.645 -1.368,-0.951 0.044,0.029 0.089,0.057 0.133,0.086 -0.123,-0.083 -0.244,-0.169 -0.368,-0.25 -0.114,-0.074 -0.231,-0.141 -0.346,-0.213 -0.445,-0.279 -0.893,-0.551 -1.354,-0.805 -0.21,-0.117 -0.426,-0.221 -0.639,-0.332 -0.289,-0.151 -0.575,-0.306 -0.868,-0.447 0.246,0.118 0.484,0.251 0.726,0.375 -0.301,-0.155 -0.6,-0.312 -0.905,-0.455 0.059,0.028 0.12,0.051 0.179,0.08 -0.366,-0.175 -0.739,-0.336 -1.114,-0.496 0.067,0.028 0.132,0.059 0.198,0.088 -0.158,-0.069 -0.318,-0.133 -0.477,-0.199 0.092,0.038 0.186,0.072 0.278,0.111 -0.278,-0.119 -0.558,-0.235 -0.839,-0.345 -0.206,-0.08 -0.411,-0.159 -0.618,-0.235 -0.173,-0.063 -0.337,-0.144 -0.512,-0.204 -0.13,-0.044 -0.263,-0.07 -0.393,-0.113 0.252,0.082 0.501,0.175 0.751,0.264 -0.32,-0.115 -0.642,-0.223 -0.966,-0.326 0.071,0.022 0.144,0.038 0.215,0.061 -0.098,-0.032 -0.198,-0.058 -0.297,-0.089 -0.264,-0.083 -0.528,-0.163 -0.794,-0.239 -0.282,-0.08 -0.564,-0.156 -0.848,-0.228 0.082,0.02 0.162,0.049 0.244,0.07 -0.154,-0.04 -0.308,-0.083 -0.463,-0.121 0.073,0.018 0.146,0.033 0.219,0.051 -0.2,-0.05 -0.399,-0.105 -0.6,-0.15 -0.141,-0.032 -0.283,-0.058 -0.425,-0.088 -0.366,-0.078 -0.734,-0.143 -1.103,-0.207 -0.264,-0.045 -0.527,-0.094 -0.792,-0.132 -0.082,-0.012 -0.163,-0.03 -0.245,-0.041 0.063,0.008 0.125,0.025 0.188,0.034 -0.57,-0.081 -1.143,-0.152 -1.718,-0.198 -0.019,-0.001 -0.038,-0.002 -0.057,-0.004 -0.197,-0.016 -0.394,-0.029 -0.591,-0.04 -0.147,-0.008 -0.295,-0.015 -0.443,-0.021 -0.069,-0.003 -0.138,-0.007 -0.207,-0.009 -4.658,-0.154 -9.328,0.829 -13.589,2.92 -13.61,6.681 -25.454,15.932 -35.204,27.494 -4.684,5.555 -8.782,11.519 -12.269,17.849 -3.479,6.315 -6.351,12.993 -8.59,19.991 -2.388,7.463 -3.992,15.094 -4.808,22.829 -0.704,6.679 -0.821,13.436 -0.343,20.233 1.063,15.116 5.027,29.756 11.781,43.515 3.354,6.83 9.283,12.049 16.484,14.508 2.013,0.687 4.08,1.143 6.161,1.37 0.047,0.005 0.094,0.01 0.142,0.015 0.127,0.013 0.255,0.025 0.382,0.036 5.196,0.47 10.468,-0.48 15.229,-2.818 6.831,-3.352 12.049,-9.281 14.508,-16.482 z m 24.188,-147.188 c -0.37,-0.229 -0.741,-0.456 -1.12,-0.667 0.379,0.211 0.75,0.438 1.12,0.667 z"
   id="path55"
   inkscape:connector-curvature="0" />
			</g>
			<g
   id="g70"
   style="stroke-width:0.69158214">
				
					<linearGradient
   id="SVGID_4_"
   gradientUnits="userSpaceOnUse"
   x1="-20.132799"
   y1="249.01221"
   x2="-96.8992"
   y2="352.7543"
   gradientTransform="matrix(0.5559629,0.41135307,0.41135307,-0.5559629,300.308,358.4963)">
					<stop
   offset="0"
   style="stop-color:#FFD031"
   id="stop59" />
					<stop
   offset="1"
   style="stop-color:#F68E1E"
   id="stop61" />
				</linearGradient>
				<path
   style="fill:url(#SVGID_4_);stroke-width:0.69158214"
   d="m 429.991,184.694 c 8.025,-12.854 13.424,-27.028 16.046,-42.129 0.791,-4.556 0.463,-9.188 -0.9,-13.518 -0.004,-0.012 -0.007,-0.025 -0.011,-0.037 -0.041,-0.128 -0.082,-0.254 -0.124,-0.381 -0.038,-0.113 -0.075,-0.225 -0.114,-0.337 -0.022,-0.064 -0.044,-0.128 -0.067,-0.192 -0.866,-2.452 -2.068,-4.796 -3.592,-6.96 -4.38,-6.222 -11.053,-10.449 -18.55,-11.751 -7.497,-1.302 -15.204,0.427 -21.426,4.808 -6.222,4.38 -10.449,11.053 -11.751,18.55 -2.653,15.277 -10.795,28.591 -22.926,37.487 -11.792,8.648 -25.999,12.072 -40.004,9.639 -2.581,-0.448 -5.182,-0.516 -7.74,-0.251 -0.083,0.008 -0.166,0.019 -0.248,0.028 -0.812,0.087 -1.622,0.212 -2.428,0.37 -0.188,0.038 -0.375,0.081 -0.563,0.122 -0.603,0.131 -1.203,0.289 -1.8,0.459 -0.199,0.057 -0.401,0.092 -0.598,0.153 -0.219,0.068 -0.431,0.153 -0.648,0.226 -0.564,0.19 -1.125,0.391 -1.677,0.616 -0.264,0.107 -0.522,0.225 -0.782,0.34 -0.521,0.231 -1.036,0.477 -1.543,0.739 -0.234,0.121 -0.47,0.239 -0.7,0.366 -0.714,0.394 -1.419,0.808 -2.102,1.264 -0.062,0.041 -0.127,0.077 -0.188,0.119 -0.133,0.09 -0.275,0.164 -0.407,0.257 -1.371,0.965 -2.632,2.053 -3.799,3.225 -0.039,0.039 -0.078,0.077 -0.116,0.116 -0.625,0.635 -1.219,1.297 -1.779,1.985 -0.561,0.688 -1.092,1.404 -1.591,2.145 -0.084,0.126 -0.167,0.253 -0.25,0.38 -0.449,0.69 -0.873,1.398 -1.264,2.129 -0.019,0.036 -0.043,0.068 -0.061,0.103 -0.006,0.012 -0.011,0.025 -0.018,0.037 0.001,-0.002 0.002,-0.004 0.003,-0.006 -0.436,0.828 -0.832,1.673 -1.182,2.532 -0.005,0.012 -0.009,0.024 -0.014,0.036 -0.078,0.193 -0.155,0.387 -0.229,0.582 -0.023,0.06 -0.045,0.12 -0.067,0.181 -0.055,0.147 -0.109,0.294 -0.161,0.442 -0.038,0.108 -0.075,0.217 -0.112,0.325 -0.034,0.101 -0.069,0.201 -0.102,0.302 -0.051,0.157 -0.101,0.314 -0.15,0.472 -0.017,0.054 -0.033,0.107 -0.05,0.161 -0.063,0.207 -0.124,0.415 -0.182,0.624 -10e-4,0.005 -0.003,0.009 -0.004,0.013 -0.252,0.908 -0.46,1.83 -0.622,2.766 -1.302,7.497 0.427,15.204 4.808,21.426 4.38,6.222 11.053,10.449 18.55,11.751 14.937,2.594 29.957,2.073 44.641,-1.551 7.042,-1.738 13.852,-4.149 20.382,-7.212 6.539,-3.067 12.799,-6.788 18.734,-11.14 6.309,-4.627 12.085,-9.849 17.285,-15.617 4.504,-4.998 8.579,-10.405 12.193,-16.194 z"
   id="path64"
   inkscape:connector-curvature="0" />
				<path
   style="fill:#1b75bb;stroke-width:0.69158214"
   d="m 295.356,196.7 c -0.09,0.208 -0.179,0.416 -0.265,0.626 0.086,-0.209 0.174,-0.418 0.265,-0.626 z"
   id="path66"
   inkscape:connector-curvature="0" />
				<path
   style="fill:#1b75bb;stroke-width:0.69158214"
   d="m 295.378,196.649 c -0.008,0.017 -0.015,0.034 -0.022,0.051 0.007,-0.017 0.015,-0.034 0.022,-0.051 z"
   id="path68"
   inkscape:connector-curvature="0" />
			</g>
			
				<linearGradient
   id="SVGID_5_"
   gradientUnits="userSpaceOnUse"
   x1="-19.3507"
   y1="410.07809"
   x2="56.742199"
   y2="307.24619"
   gradientTransform="matrix(0.5559629,0.41135307,0.41135307,-0.5559629,300.308,358.4963)">
				<stop
   offset="0"
   style="stop-color:#30A7DE"
   id="stop72" />
				<stop
   offset="1"
   style="stop-color:#076CB4"
   id="stop74" />
			</linearGradient>
			<path
   style="fill:url(#SVGID_5_);stroke-width:0.69158214"
   d="m 542.921,203.262 c -0.223,-1.557 -0.572,-3.081 -1.038,-4.561 -1.792,-5.683 -5.325,-10.71 -10.155,-14.33 -4.374,-3.278 -9.556,-5.212 -14.919,-5.642 -0.019,-0.001 -0.038,-0.002 -0.057,-0.004 -0.197,-0.016 -0.394,-0.029 -0.591,-0.04 -0.147,-0.008 -0.295,-0.015 -0.443,-0.021 -0.069,-0.003 -0.138,-0.007 -0.207,-0.009 -0.165,-0.005 -0.33,-0.009 -0.495,-0.012 -0.117,-0.002 -0.235,-0.003 -0.352,-0.004 -0.02,0 -0.041,0 -0.06,0 -1.38,-0.004 -2.766,0.089 -4.149,0.287 -15.349,2.197 -30.527,-1.432 -42.737,-10.219 -11.869,-8.543 -19.515,-20.997 -21.529,-35.068 -0.049,-0.341 -0.127,-0.673 -0.188,-1.011 -0.033,-0.181 -0.065,-0.362 -0.101,-0.542 -0.206,-1.029 -0.447,-2.048 -0.762,-3.042 -0.004,-0.012 -0.007,-0.025 -0.011,-0.037 -0.041,-0.128 -0.082,-0.254 -0.124,-0.381 -0.038,-0.113 -0.075,-0.225 -0.114,-0.337 -0.022,-0.064 -0.044,-0.128 -0.067,-0.192 -1.877,-5.281 -5.275,-9.939 -9.826,-13.35 -6.088,-4.564 -13.741,-6.522 -21.273,-5.443 -7.532,1.078 -14.328,5.105 -18.891,11.193 -4.564,6.089 -6.522,13.741 -5.443,21.273 2.149,15.009 7.286,29.131 15.27,41.976 3.825,6.154 8.217,11.879 13.141,17.138 4.942,5.279 10.421,10.089 16.401,14.393 6.367,4.583 13.136,8.47 20.25,11.639 6.127,2.729 12.51,4.924 19.112,6.568 14.705,3.66 29.853,4.414 45.026,2.242 7.532,-1.078 14.328,-5.105 18.891,-11.193 4.561,-6.086 6.519,-13.738 5.441,-21.271 z"
   id="path77"
   inkscape:connector-curvature="0" />
		</g>
		
			<linearGradient
   id="SVGID_6_"
   gradientUnits="userSpaceOnUse"
   x1="740.28339"
   y1="784.22748"
   x2="742.5705"
   y2="787.27667"
   gradientTransform="matrix(0.69158216,0,0,-0.69158216,135.85453,457.89533)">
			<stop
   offset="0"
   style="stop-color:#30A7DE"
   id="stop81" />
			<stop
   offset="1"
   style="stop-color:#076CB4"
   id="stop83" />
		</linearGradient>
		<circle
   style="fill:url(#SVGID_6_);stroke-width:0.69158214"
   cx="507.534"
   cy="119.997"
   r="40.623001"
   id="circle86" />
		
			<linearGradient
   id="SVGID_7_"
   gradientUnits="userSpaceOnUse"
   x1="625.48291"
   y1="870.32788"
   x2="627.7699"
   y2="873.37732"
   gradientTransform="matrix(0.69158216,0,0,-0.69158216,135.85453,457.89533)">
			<stop
   offset="0"
   style="stop-color:#FFD031"
   id="stop88" />
			<stop
   offset="1"
   style="stop-color:#F68E1E"
   id="stop90" />
		</linearGradient>
		<circle
   style="fill:url(#SVGID_7_);stroke-width:0.69158214"
   cx="326.98599"
   cy="121.586"
   r="40.623001"
   id="circle93" />
		
			<linearGradient
   id="SVGID_8_"
   gradientUnits="userSpaceOnUse"
   x1="417.64099"
   y1="169.519"
   x2="417.64099"
   y2="250.765"
   gradientTransform="matrix(0.69158216,0,0,-0.69158216,135.85453,457.89533)">
			<stop
   offset="0"
   style="stop-color:#7EC798"
   id="stop95" />
			<stop
   offset="1"
   style="stop-color:#00A551"
   id="stop97" />
		</linearGradient>
		<circle
   style="fill:url(#SVGID_8_);stroke-width:0.69158214"
   cx="417.64099"
   cy="383.76801"
   r="40.623001"
   id="circle100" />
		
			<linearGradient
   id="SVGID_9_"
   gradientUnits="userSpaceOnUse"
   x1="674.23822"
   y1="833.76129"
   x2="676.52521"
   y2="836.81073"
   gradientTransform="matrix(0.69158216,0,0,-0.69158216,135.85453,457.89533)">
			<stop
   offset="0"
   style="stop-color:#F58D52"
   id="stop102" />
			<stop
   offset="1"
   style="stop-color:#EE4865"
   id="stop104" />
		</linearGradient>
		<circle
   style="fill:url(#SVGID_9_);stroke-width:0.69158214"
   cx="283.151"
   cy="281.61401"
   r="40.623001"
   id="circle107" />
		<g
   id="g116"
   style="stroke-width:0.69158214">
			
				<linearGradient
   id="SVGID_10_"
   gradientUnits="userSpaceOnUse"
   x1="534.36267"
   y1="279.79568"
   x2="583.11322"
   y2="344.7963"
   gradientTransform="matrix(0.69158216,0,0,-0.69158216,135.85453,457.89533)">
				<stop
   offset="0"
   style="stop-color:#6FCBDC"
   id="stop109" />
				<stop
   offset="1"
   style="stop-color:#3CB1E5"
   id="stop111" />
			</linearGradient>
			<circle
   style="fill:url(#SVGID_10_);stroke-width:0.69158214"
   cx="558.73798"
   cy="281.61401"
   r="40.623001"
   id="circle114" />
		</g>
	</g>
	
	
</g>
</svg>